<svg xmlns="http://www.w3.org/2000/svg" xmlns:xlink="http://www.w3.org/1999/xlink" width="800" zoomAndPan="magnify" viewBox="0 0 600 449.999984" height="600" preserveAspectRatio="xMidYMid meet" version="1.0"><defs><g/><clipPath id="f31eac758f"><path d="M 189.820312 201.953125 L 405.820312 201.953125 L 405.820312 247.703125 L 189.820312 247.703125 Z M 189.820312 201.953125 " clip-rule="nonzero"/></clipPath></defs><g clip-path="url(#f31eac758f)"><path fill="#d9d9d9" d="M 366.972656 210.160156 C 370.167969 209.996094 373.347656 209.753906 376.539062 209.558594 C 382.933594 209.207031 389.261719 208.621094 395.621094 208.136719 C 395.308594 209.765625 395.015625 211.460938 395.9375 212.863281 C 395.9375 212.863281 396.921875 212.738281 398.140625 212.5 C 399.359375 212.28125 400.824219 212.015625 401.800781 211.839844 C 410.0625 214.246094 408.925781 219.90625 405.296875 224.464844 C 404.355469 225.429688 403.289062 226.515625 402.082031 227.625 C 401.0625 227.648438 400.039062 227.667969 399.03125 227.691406 C 394.4375 227.816406 389.910156 228.039062 385.34375 228.421875 C 380.804688 228.699219 376.25 229.066406 371.632812 229.476562 C 362.414062 230.195312 359.683594 231.003906 349.71875 231.128906 C 335.738281 230.910156 363.601562 230.042969 349.71875 231.128906 C 366.203125 230.550781 339.402344 232.3125 356.175781 231.398438 C 360.371094 231.1875 357.835938 230.976562 362.007812 230.769531 C 366.1875 230.617188 370.351562 230.464844 374.488281 230.316406 C 378.640625 230.164062 382.753906 230.148438 386.875 230.082031 C 391.007812 229.988281 395.09375 230.015625 399.195312 230.054688 C 396.105469 232.378906 392.359375 234.34375 387.816406 235 C 376.988281 235.710938 366.308594 236.410156 355.722656 237.101562 C 355.671875 236.324219 347.445312 237.738281 340.167969 238.207031 C 332.898438 238.621094 325.734375 237.191406 318.523438 237.359375 C 304.089844 237.742188 275.363281 242.207031 275.164062 242.722656 C 275.09375 242.726562 275.023438 242.734375 274.953125 242.738281 C 275.023438 242.734375 275.09375 242.726562 275.164062 242.722656 C 274.984375 243.171875 275.121094 243.503906 276.972656 243.375 C 275.121094 243.503906 274.984375 243.171875 275.164062 242.722656 C 304.425781 239.90625 325.097656 238.566406 354.515625 237.191406 C 331.699219 238.714844 316.125 240.511719 293.683594 242.371094 C 271.242188 244.222656 248.679688 246.09375 225.40625 247.519531 C 223.421875 247.640625 219.453125 247.882812 217.46875 248.003906 C 209.445312 246.164062 201.476562 245.855469 193.554688 246.308594 C 195.398438 242.335938 187.199219 235.082031 203.113281 235.710938 C 203.085938 234.9375 203.03125 233.394531 203.003906 232.625 C 194.988281 231.160156 189.476562 227.796875 187.71875 224.332031 C 186.910156 222.613281 187.011719 220.820312 188.460938 219.226562 C 189.972656 217.621094 192.488281 216.226562 196.429688 215.226562 C 214.128906 211.121094 237.984375 212.769531 259.667969 209.761719 C 275.457031 207.933594 291.222656 206.03125 307.082031 206.351562 C 328.910156 206.980469 345.808594 204.199219 367.574219 204.890625 C 371.519531 204.828125 376.867188 203.785156 381.742188 203.011719 C 386.589844 202.183594 390.917969 201.523438 392.972656 202.40625 C 395.859375 203.113281 396.136719 204.726562 395.882812 206.609375 C 389.457031 207.382812 383.070312 208.265625 376.625 208.875 C 373.410156 209.203125 370.210938 209.570312 367 209.847656 C 363.789062 210.113281 360.582031 210.375 357.390625 210.640625 " fill-opacity="1" fill-rule="nonzero"/></g><g fill="#222222" fill-opacity="1"><g transform="translate(22.369589, 166.729846)"><g><path d="M 84.570312 -74.378906 C 84.019531 -78.785156 77.269531 -82.089844 73.550781 -79.472656 C 70.519531 -77.40625 67.765625 -71.761719 65.5625 -68.453125 L 52.0625 -48.070312 C 49.996094 -44.902344 47.933594 -41.734375 45.726562 -38.703125 C 45.175781 -37.738281 39.941406 -29.613281 39.941406 -29.613281 C 40.496094 -29.476562 41.734375 -31.402344 42.007812 -31.679688 C 38.289062 -26.445312 33.46875 -20.9375 28.925781 -15.703125 C 27.410156 -13.773438 18.320312 -1.789062 15.011719 -3.304688 C 13.910156 -3.855469 13.636719 -5.648438 13.5 -6.609375 C 12.394531 -13.910156 15.152344 -21.210938 15.976562 -28.234375 L 15.425781 -26.859375 L 16.253906 -30.300781 C 16.253906 -29.886719 16.113281 -29.476562 16.113281 -29.0625 L 16.253906 -29.886719 L 15.839844 -25.757812 C 17.769531 -34.019531 20.523438 -42.007812 23.691406 -49.722656 C 24.515625 -51.652344 32.503906 -71.621094 34.160156 -73.414062 C 33.882812 -73.273438 33.46875 -72.722656 33.054688 -72.171875 C 35.671875 -76.992188 38.429688 -81.539062 41.597656 -85.945312 C 40.90625 -84.84375 39.667969 -82.777344 39.667969 -82.777344 C 40.21875 -82.640625 45.726562 -90.214844 45.726562 -91.042969 C 45.726562 -91.179688 45.316406 -90.90625 44.902344 -90.628906 C 46.277344 -92.421875 47.242188 -93.382812 46.140625 -96.414062 C 44.488281 -99.859375 39.667969 -104.128906 35.671875 -102.0625 C 34.847656 -101.511719 34.296875 -100.824219 33.746094 -100.132812 C 30.851562 -96.414062 28.511719 -91.59375 26.582031 -87.460938 C 25.894531 -85.808594 25.34375 -85.535156 24.242188 -84.292969 C 22.449219 -82.226562 21.488281 -79.472656 20.246094 -77.132812 C 17.769531 -72.171875 15.839844 -66.9375 13.636719 -61.84375 C 11.433594 -57.160156 9.640625 -52.339844 8.125 -47.382812 C 7.4375 -45.453125 6.886719 -43.523438 6.335938 -41.597656 C 5.785156 -39.667969 3.855469 -36.085938 4.132812 -34.019531 L 4.957031 -35.8125 C 4.269531 -33.46875 3.71875 -30.992188 3.167969 -28.511719 C 3.03125 -28.511719 3.304688 -30.300781 3.304688 -30.300781 C 2.753906 -30.300781 1.515625 -24.242188 1.238281 -23.414062 C 0.6875 -20.523438 0.277344 -17.628906 0 -14.601562 C -0.136719 -11.433594 0 -8.539062 1.515625 -5.648438 C 4.40625 -0.550781 9.640625 4.40625 15.289062 6.199219 C 16.253906 6.472656 17.355469 6.75 18.320312 6.609375 C 19.28125 6.472656 20.246094 6.058594 20.9375 5.371094 C 21.488281 5.097656 23.691406 2.753906 22.175781 3.855469 L 24.792969 1.378906 C 24.792969 1.378906 23.554688 2.890625 23.140625 3.167969 C 23.828125 2.890625 25.34375 0.828125 25.34375 0.828125 C 29.886719 -4.132812 34.433594 -8.953125 38.566406 -14.324219 C 42.835938 -20.109375 46.691406 -26.445312 50.550781 -32.644531 C 49.445312 -29.335938 49.171875 -26.03125 48.207031 -22.726562 C 47.65625 -20.9375 47.105469 -19.144531 46.691406 -17.355469 C 46.417969 -16.664062 46.140625 -13.359375 46.417969 -13.636719 C 46.417969 -13.222656 46.417969 -12.945312 46.277344 -12.671875 C 46.277344 -12.808594 46.277344 -12.945312 46.140625 -13.085938 C 45.726562 -12.945312 45.726562 -8.816406 45.589844 -8.125 C 45.039062 -6.199219 44.214844 -4.40625 43.9375 -2.203125 C 43.25 3.582031 43.664062 10.332031 47.242188 15.289062 C 49.445312 18.320312 52.753906 19.972656 56.472656 20.246094 C 60.464844 20.386719 62.667969 18.179688 64.734375 15.152344 C 66.113281 13.085938 67.351562 11.292969 68.179688 8.953125 C 68.867188 7.023438 70.246094 3.304688 69.417969 1.378906 C 68.867188 0.136719 68.59375 0 67.492188 0.550781 C 65.976562 1.101562 64.183594 4.40625 63.21875 5.648438 C 61.84375 7.164062 59.089844 11.019531 56.746094 11.292969 C 55.371094 11.433594 55.644531 11.15625 55.371094 9.503906 C 55.230469 8.539062 55.230469 2.066406 55.371094 1.929688 C 54.957031 2.480469 54.820312 3.03125 54.679688 3.582031 C 55.230469 -0.964844 57.160156 -6.472656 58.539062 -11.292969 C 60.191406 -16.941406 61.429688 -22.589844 62.945312 -28.234375 C 64.597656 -34.019531 66.800781 -39.804688 69.144531 -45.316406 C 69.695312 -46.554688 75.890625 -60.191406 76.855469 -61.429688 C 75.890625 -60.742188 70.933594 -50.273438 69.28125 -46.828125 C 72.585938 -54.679688 76.441406 -62.257812 81.265625 -69.417969 C 81.402344 -69.417969 79.886719 -67.078125 80.160156 -67.078125 C 80.574219 -66.800781 83.882812 -71.898438 83.605469 -72.035156 C 83.46875 -72.035156 83.328125 -72.035156 83.191406 -71.898438 C 83.882812 -72.585938 84.707031 -73 84.570312 -74.378906 Z M 48.621094 -8.953125 C 47.382812 -3.304688 46.003906 4.269531 47.105469 9.917969 C 45.867188 3.582031 46.277344 -3.582031 47.382812 -9.917969 C 48.207031 -15.152344 49.722656 -19.972656 51.511719 -24.792969 C 49.996094 -19.28125 49.859375 -14.460938 48.621094 -8.953125 Z M 25.617188 -61.292969 C 29.476562 -70.519531 34.984375 -78.921875 40.769531 -86.910156 C 34.984375 -78.648438 30.300781 -69.695312 26.167969 -60.464844 C 23 -53.164062 20.109375 -46.140625 18.042969 -38.839844 C 18.457031 -40.769531 18.871094 -42.699219 19.558594 -44.625 C 21.210938 -50.273438 23.414062 -55.78125 25.617188 -61.292969 Z M 22.449219 -47.933594 C 24.929688 -54.679688 27.824219 -61.429688 31.128906 -68.042969 C 28.097656 -61.707031 23.964844 -51.789062 22.449219 -47.933594 Z M 66.113281 -38.839844 C 65.699219 -37.601562 65.148438 -36.363281 64.597656 -35.261719 L 67.078125 -41.597656 Z M 33.054688 -72.035156 L 33.054688 -72.171875 Z M 43.386719 -90.214844 C 43.386719 -90.078125 43.25 -89.941406 43.109375 -89.941406 C 43.25 -89.941406 43.386719 -90.078125 43.386719 -90.214844 Z M 43.386719 -90.214844 "/></g></g></g><g fill="#222222" fill-opacity="1"><g transform="translate(99.776807, 166.729846)"><g><path d="M 57.023438 -32.78125 C 56.332031 -36.085938 54.40625 -33.882812 53.578125 -32.644531 C 51.652344 -30.300781 48.621094 -28.097656 46.277344 -25.894531 C 43.109375 -23.140625 39.941406 -20.246094 36.636719 -17.628906 C 34.984375 -16.253906 32.917969 -14.324219 30.851562 -13.636719 C 30.578125 -13.5 29.613281 -13.359375 29.613281 -13.222656 L 29.476562 -13.359375 C 29.476562 -13.359375 29.335938 -15.5625 29.476562 -15.703125 C 29.613281 -17.492188 30.164062 -19.28125 30.714844 -20.9375 C 30.851562 -21.210938 32.367188 -25.894531 32.09375 -25.894531 L 31.402344 -25.066406 C 32.230469 -26.71875 33.332031 -28.375 34.296875 -30.164062 C 32.09375 -28.097656 30.578125 -25.757812 29.476562 -22.863281 C 28.925781 -21.488281 27.410156 -19.007812 27.132812 -16.941406 C 27.410156 -19.972656 29.476562 -23.964844 30.441406 -25.757812 C 31.816406 -28.648438 33.332031 -31.953125 35.121094 -34.710938 C 38.429688 -39.667969 45.589844 -44.214844 43.386719 -51.101562 C 41.457031 -57.574219 36.363281 -57.710938 32.367188 -53.992188 C 30.441406 -52.203125 14.050781 -31.265625 14.460938 -30.992188 C 14.460938 -30.992188 15.839844 -32.644531 17.628906 -34.984375 L 9.503906 -23.140625 C 9.367188 -23.140625 10.882812 -25.480469 10.742188 -25.617188 C 10.605469 -25.757812 9.640625 -24.792969 9.503906 -24.242188 C 9.777344 -27.132812 10.742188 -30.027344 11.019531 -32.917969 C 11.15625 -34.019531 11.019531 -34.847656 11.292969 -35.949219 C 11.84375 -37.738281 12.394531 -39.667969 13.222656 -41.183594 C 13.773438 -42.285156 14.875 -43.25 15.152344 -44.351562 C 15.703125 -46.140625 15.5625 -46.828125 16.804688 -48.34375 C 17.90625 -49.722656 19.558594 -51.101562 20.523438 -52.339844 C 22.863281 -55.78125 18.871094 -58.125 16.664062 -58.539062 C 14.875 -58.8125 13.085938 -58.949219 11.433594 -57.988281 C 9.640625 -56.882812 10.054688 -55.921875 9.640625 -54.40625 C 9.226562 -52.476562 7.851562 -50.273438 7.164062 -48.484375 C 6.058594 -45.589844 5.097656 -42.699219 4.132812 -39.804688 C 3.03125 -36.914062 1.929688 -34.160156 1.101562 -31.265625 C 0.414062 -28.925781 0.550781 -26.71875 0.277344 -24.515625 C 0 -22.039062 -0.414062 -20.386719 0.828125 -18.179688 C 2.203125 -15.839844 5.921875 -12.257812 8.402344 -15.289062 L 8.953125 -14.1875 C 11.292969 -19.28125 14.875 -23.828125 17.769531 -28.785156 C 19.007812 -30.992188 21.210938 -32.503906 23 -34.847656 C 25.480469 -38.152344 27.683594 -41.457031 30.441406 -44.625 C 30.027344 -43.9375 28.234375 -40.769531 28.375 -40.632812 C 28.648438 -40.769531 28.785156 -41.046875 29.0625 -41.320312 L 27.132812 -37.464844 C 26.996094 -37.601562 27.683594 -38.566406 27.410156 -38.566406 C 26.445312 -38.839844 23.554688 -31.128906 23.277344 -30.441406 C 22.3125 -27.410156 22.175781 -24.65625 21.898438 -21.488281 C 21.761719 -19.972656 21.488281 -18.457031 21.488281 -16.941406 C 21.488281 -15.425781 21.625 -13.910156 22.3125 -12.394531 C 22.726562 -11.570312 23.277344 -10.46875 23.964844 -9.777344 C 24.105469 -9.777344 25.617188 -8.402344 24.929688 -9.503906 L 25.757812 -8.675781 L 25.34375 -8.953125 C 25.207031 -8.265625 30.300781 -5.507812 31.128906 -5.234375 C 34.984375 -3.996094 39.117188 -8.402344 41.597656 -11.019531 C 44.902344 -14.601562 47.65625 -18.730469 50.6875 -22.589844 C 52.339844 -24.792969 57.574219 -29.476562 57.023438 -32.78125 Z M 57.023438 -32.78125 "/></g></g></g><g fill="#222222" fill-opacity="1"><g transform="translate(146.744538, 166.729846)"><g><path d="M 55.09375 -35.121094 C 53.164062 -33.054688 51.925781 -29.613281 50.410156 -27.132812 C 48.070312 -23.140625 45.726562 -19.28125 43.25 -15.425781 C 38.566406 -7.988281 33.882812 -0.414062 28.234375 6.335938 C 25.894531 9.226562 20.9375 16.253906 16.253906 15.703125 C 12.808594 15.152344 12.808594 9.226562 12.808594 6.609375 C 12.808594 4.40625 12.945312 2.203125 13.222656 0.136719 C 13.359375 -1.101562 14.460938 -5.234375 13.773438 -6.335938 L 12.671875 -2.203125 C 12.808594 -3.855469 13.085938 -5.648438 13.5 -7.300781 C 13.359375 -7.574219 14.601562 -11.433594 14.875 -12.671875 C 15.5625 -15.425781 16.253906 -18.179688 17.078125 -20.9375 C 17.769531 -23.691406 18.457031 -26.308594 19.28125 -28.925781 C 19.972656 -31.402344 20.9375 -32.644531 22.449219 -34.570312 C 28.648438 -42.285156 34.296875 -50.6875 39.53125 -59.089844 C 41.457031 -62.257812 42.699219 -65.011719 45.039062 -67.628906 C 48.484375 -71.210938 50.824219 -76.582031 53.027344 -80.988281 C 56.746094 -88.152344 61.707031 -98.066406 60.878906 -106.46875 L 60.878906 -107.15625 L 60.742188 -107.296875 C 59.914062 -112.667969 54.957031 -119.003906 48.894531 -117.074219 C 45.726562 -116.109375 43.386719 -112.804688 41.457031 -110.464844 L 38.289062 -106.195312 C 37.601562 -105.367188 36.636719 -103.300781 35.949219 -102.199219 L 36.085938 -102.335938 L 31.679688 -94.761719 L 32.78125 -97.101562 C 32.09375 -97.242188 29.0625 -91.320312 28.648438 -90.628906 C 27.132812 -88.011719 25.757812 -85.394531 24.515625 -82.777344 C 21.761719 -77.269531 19.007812 -71.621094 17.21875 -65.699219 C 15.289062 -59.777344 13.085938 -53.992188 11.019531 -48.070312 C 9.917969 -44.902344 8.816406 -41.597656 7.851562 -38.429688 C 7.023438 -35.8125 5.097656 -31.542969 5.507812 -28.785156 L 5.921875 -28.785156 C 5.507812 -27.824219 5.234375 -26.859375 4.957031 -25.894531 C 5.097656 -26.71875 5.097656 -27.683594 5.234375 -27.960938 C 4.546875 -26.996094 4.683594 -23.691406 4.546875 -23.414062 C 2.753906 -15.976562 0.6875 -8.539062 0.136719 -0.828125 C -0.277344 6.472656 -0.277344 16.113281 5.507812 21.488281 C 11.984375 27.410156 19.421875 23.414062 24.792969 18.320312 C 31.128906 12.121094 36.5 4.820312 41.457031 -2.339844 C 46.003906 -8.953125 49.585938 -15.976562 53.71875 -22.589844 C 55.371094 -25.34375 57.160156 -28.097656 57.988281 -31.128906 C 58.539062 -33.332031 58.261719 -38.429688 55.09375 -35.121094 Z M 37.878906 -84.433594 C 40.632812 -91.042969 43.386719 -97.792969 47.242188 -103.992188 C 48.207031 -105.503906 54.40625 -113.769531 54.128906 -106.46875 L 54.128906 -106.332031 C 53.855469 -98.617188 48.894531 -90.492188 45.589844 -83.882812 L 39.804688 -73.136719 C 37.878906 -69.832031 34.570312 -65.699219 33.46875 -62.117188 C 34.296875 -64.324219 36.773438 -67.492188 38.015625 -69.554688 C 40.082031 -73 41.871094 -76.441406 43.800781 -79.886719 C 46.96875 -85.945312 50.410156 -92.28125 52.753906 -98.894531 C 46.554688 -80.4375 34.984375 -63.21875 24.792969 -46.828125 C 28.785156 -58.949219 32.78125 -72.171875 37.878906 -84.433594 Z M 33.46875 -94.074219 C 34.847656 -96.691406 37.328125 -98.894531 38.703125 -101.375 C 35.8125 -95.589844 32.230469 -90.355469 29.199219 -84.84375 C 29.199219 -84.984375 29.199219 -85.257812 29.335938 -85.394531 C 30.578125 -88.425781 31.953125 -91.179688 33.46875 -94.074219 Z M 7.4375 -22.863281 C 7.300781 -22.589844 7.300781 -22.449219 7.300781 -22.449219 C 5.648438 -18.59375 5.507812 -13.359375 4.683594 -9.226562 C 4.546875 -8.265625 4.269531 -7.4375 4.269531 -6.472656 L 4.269531 -6.886719 L 3.855469 -2.480469 C 4.132812 -7.4375 4.683594 -12.535156 5.648438 -17.355469 L 5.648438 -17.21875 C 6.058594 -20.386719 6.75 -23.277344 7.300781 -23.277344 C 7.574219 -23.414062 7.574219 -23 7.4375 -22.863281 Z M 7.4375 -22.863281 "/></g></g></g><g fill="#222222" fill-opacity="1"><g transform="translate(195.502822, 166.729846)"><g><path d="M 70.105469 -33.195312 C 69.96875 -36.222656 67.492188 -33.609375 66.664062 -32.503906 C 64.875 -29.886719 63.21875 -27.132812 61.566406 -24.515625 C 57.847656 -18.871094 54.128906 -13.222656 49.859375 -7.851562 C 35.671875 9.640625 45.589844 -21.488281 44.488281 -21.210938 C 43.9375 -21.074219 43.523438 -19.007812 43.386719 -18.59375 C 44.488281 -23.554688 46.554688 -29.476562 49.171875 -34.296875 C 50.6875 -37.328125 52.476562 -39.804688 49.722656 -43.109375 C 44.625 -49.308594 38.703125 -43.664062 35.398438 -39.390625 C 34.019531 -44.625 31.265625 -52.339844 24.515625 -52.339844 C 21.488281 -52.339844 19.695312 -50.824219 17.628906 -49.035156 C 16.390625 -48.207031 15.425781 -48.070312 14.324219 -47.105469 C 12.535156 -45.867188 11.292969 -43.9375 10.054688 -42.285156 C 5.371094 -35.398438 2.066406 -26.71875 0.550781 -18.730469 C -0.136719 -14.875 -0.414062 -10.605469 0.6875 -6.75 C 1.378906 -4.546875 3.855469 0.414062 7.023438 0 C 7.164062 0 6.886719 -0.136719 6.472656 -0.414062 C 8.402344 0.136719 10.605469 -0.136719 12.257812 -1.238281 C 12.394531 -0.964844 10.742188 -0.277344 10.742188 -0.277344 C 12.257812 2.066406 23.554688 -11.570312 24.378906 -12.808594 C 26.167969 -15.289062 27.410156 -17.90625 29.0625 -20.523438 C 30.300781 -22.449219 32.230469 -24.929688 33.609375 -26.996094 C 33.46875 -26.03125 33.46875 -24.792969 33.46875 -24.792969 C 30.992188 -16.941406 28.648438 -8.402344 31.953125 -0.277344 C 33.46875 3.855469 37.1875 7.714844 41.871094 6.886719 C 46.003906 6.199219 49.445312 2.203125 51.925781 -0.964844 C 54.957031 -4.546875 57.574219 -8.539062 60.191406 -12.671875 C 62.394531 -16.390625 64.460938 -20.109375 66.25 -24.242188 C 67.351562 -26.859375 70.382812 -30.027344 70.105469 -33.195312 Z M 30.578125 -32.230469 C 29.886719 -31.265625 29.199219 -30.300781 28.648438 -29.335938 L 25.066406 -24.242188 C 22.726562 -20.796875 20.246094 -17.492188 17.628906 -14.324219 C 16.941406 -13.359375 13.636719 -9.089844 12.257812 -9.503906 C 10.191406 -10.191406 12.394531 -17.355469 12.671875 -18.457031 C 13.085938 -20.386719 20.386719 -41.597656 22.3125 -42.007812 C 19.832031 -42.148438 11.84375 -17.21875 11.433594 -15.152344 C 12.535156 -21.898438 15.011719 -28.511719 17.769531 -34.710938 C 19.28125 -37.878906 22.726562 -46.277344 27.273438 -46.277344 C 29.75 -46.277344 30.300781 -41.183594 30.714844 -39.53125 C 30.578125 -39.804688 29.335938 -43.800781 29.199219 -43.664062 C 28.511719 -43.109375 31.265625 -35.535156 31.265625 -34.433594 C 31.265625 -33.332031 31.265625 -33.332031 30.578125 -32.230469 Z M 33.746094 -25.480469 C 33.746094 -25.480469 34.160156 -27.410156 34.296875 -27.824219 L 34.984375 -28.785156 Z M 31.679688 -34.019531 L 31.679688 -35.398438 C 32.09375 -34.847656 32.09375 -34.433594 31.679688 -34.019531 Z M 31.679688 -34.019531 "/></g></g></g><g fill="#222222" fill-opacity="1"><g transform="translate(255.555402, 166.729846)"><g><path d="M 81.402344 -33.609375 L 81.402344 -33.746094 C 80.574219 -38.289062 74.378906 -30.714844 73.550781 -30.027344 C 69.554688 -25.617188 65.835938 -20.796875 62.257812 -15.976562 C 58.675781 -11.019531 55.230469 -6.058594 51.511719 -1.101562 C 49.722656 1.378906 47.933594 3.71875 45.867188 5.921875 C 45.175781 6.75 43.523438 9.089844 42.285156 9.089844 C 37.464844 9.089844 41.183594 -10.332031 41.734375 -13.359375 C 42.558594 -18.730469 42.972656 -25.894531 46.417969 -30.164062 C 47.242188 -31.265625 56.609375 -43.25 56.609375 -43.25 C 56.332031 -43.386719 55.230469 -42.007812 54.542969 -41.183594 L 60.464844 -49.171875 L 60.878906 -49.722656 L 61.015625 -49.722656 L 60.878906 -49.722656 L 61.980469 -51.238281 C 62.117188 -51.101562 61.980469 -50.824219 61.84375 -50.550781 L 63.082031 -51.925781 L 66.664062 -56.609375 C 69.28125 -60.328125 71.761719 -64.324219 74.101562 -68.179688 C 77.820312 -74.515625 82.917969 -83.605469 80.160156 -91.320312 C 78.097656 -96.964844 70.519531 -98.066406 65.425781 -96.140625 C 61.707031 -94.761719 58.539062 -91.871094 55.921875 -88.839844 C 54.542969 -87.046875 53.164062 -85.121094 51.925781 -83.054688 C 51.511719 -82.503906 49.722656 -78.097656 49.308594 -77.546875 L 49.445312 -77.546875 C 48.621094 -76.03125 47.792969 -74.515625 47.242188 -73 C 47.519531 -74.101562 48.207031 -76.304688 48.757812 -76.71875 C 47.65625 -75.890625 46.691406 -71.898438 46.417969 -71.484375 C 41.183594 -60.050781 36.636719 -48.484375 33.332031 -36.363281 C 29.613281 -40.632812 23.691406 -47.933594 17.21875 -45.316406 C 11.84375 -43.109375 7.851562 -37.464844 5.097656 -32.503906 C 2.617188 -28.097656 1.929688 -23.554688 0.136719 -19.28125 C -3.03125 -11.984375 -4.546875 3.03125 6.199219 5.234375 C 9.503906 5.921875 12.535156 3.855469 15.152344 2.066406 C 19.832031 -1.378906 24.242188 -5.371094 28.375 -9.503906 C 27.683594 -2.203125 26.167969 8.816406 32.09375 14.601562 C 39.390625 22.039062 46.691406 11.984375 51.101562 6.472656 C 56.746094 -0.6875 61.15625 -8.675781 66.800781 -15.5625 C 69.554688 -18.871094 72.3125 -22.175781 75.203125 -25.207031 C 77.40625 -27.410156 81.816406 -30.164062 81.402344 -33.609375 Z M 30.714844 -24.515625 C 30.578125 -24.105469 30.578125 -23.828125 30.578125 -23.828125 C 30.027344 -20.523438 30.027344 -17.628906 27.683594 -15.289062 C 25.617188 -13.085938 23.414062 -11.019531 21.210938 -8.953125 C 19.144531 -7.023438 14.1875 -1.378906 11.019531 -1.652344 C 7.164062 -2.066406 10.054688 -10.882812 11.984375 -16.253906 C 9.917969 -10.742188 6.609375 -1.789062 11.15625 -1.515625 C 12.394531 -1.378906 14.460938 -2.480469 16.253906 -3.996094 C 14.601562 -2.480469 11.84375 -0.414062 10.191406 -1.238281 C 7.023438 -2.617188 9.777344 -10.46875 10.332031 -12.671875 C 12.121094 -19.007812 14.738281 -25.066406 17.769531 -30.851562 C 19.28125 -33.746094 21.488281 -38.429688 24.378906 -38.703125 L 23.691406 -38.289062 C 23.828125 -38.429688 23.964844 -38.429688 24.105469 -38.429688 C 25.066406 -38.703125 26.03125 -38.015625 26.71875 -37.464844 C 28.511719 -36.222656 29.613281 -33.882812 30.851562 -32.09375 C 32.230469 -29.886719 31.265625 -27.546875 30.714844 -25.066406 Z M 52.890625 -56.332031 C 52.890625 -56.472656 52.890625 -56.746094 53.027344 -56.882812 L 53.027344 -57.023438 C 53.164062 -57.4375 53.304688 -57.574219 53.304688 -57.574219 L 53.304688 -57.710938 C 56.472656 -66.527344 59.914062 -75.339844 64.875 -83.328125 C 66.113281 -85.394531 69.695312 -91.730469 72.863281 -89.941406 C 74.101562 -89.253906 74.378906 -87.460938 74.378906 -86.222656 C 74.929688 -77.957031 68.316406 -68.179688 64.183594 -61.566406 C 59.363281 -53.855469 53.992188 -46.277344 48.34375 -39.253906 L 51.375 -42.421875 L 54.128906 -45.867188 L 47.105469 -36.773438 L 46.140625 -35.535156 L 45.589844 -34.984375 C 45.726562 -35.8125 46.417969 -36.636719 47.105469 -37.601562 C 46.828125 -37.328125 46.554688 -37.050781 46.417969 -36.773438 C 48.207031 -42.699219 50.136719 -48.621094 52.203125 -54.542969 C 52.0625 -54.40625 52.203125 -54.679688 52.339844 -55.230469 L 52.753906 -55.921875 C 52.753906 -56.058594 52.753906 -56.195312 52.890625 -56.332031 Z M 41.320312 -45.039062 C 41.046875 -44.351562 40.21875 -41.183594 39.804688 -40.769531 C 39.804688 -40.632812 39.667969 -40.496094 39.53125 -40.496094 C 40.632812 -41.871094 39.941406 -43.664062 40.496094 -45.316406 C 40.769531 -46.140625 42.148438 -47.65625 42.421875 -48.757812 C 42.421875 -47.65625 41.734375 -45.726562 41.320312 -45.039062 Z M 19.421875 -6.886719 C 22.863281 -9.917969 26.167969 -13.085938 29.335938 -16.390625 C 29.0625 -14.601562 24.792969 -11.570312 23.277344 -10.191406 C 21.488281 -8.402344 19.421875 -6.609375 17.355469 -4.957031 L 17.21875 -4.957031 Z M 43.800781 -57.574219 C 43.25 -55.921875 42.558594 -54.40625 41.734375 -52.890625 C 42.421875 -54.957031 42.835938 -57.023438 43.800781 -58.949219 C 44.625 -60.464844 45.589844 -62.394531 46.277344 -64.183594 C 45.589844 -61.980469 44.488281 -59.640625 43.800781 -57.574219 Z M 52.753906 -55.921875 L 52.203125 -54.542969 C 52.203125 -54.679688 52.339844 -54.957031 52.339844 -55.230469 Z M 23 -37.738281 C 22.449219 -37.328125 22.039062 -36.773438 21.898438 -36.773438 C 22.175781 -36.773438 22.589844 -37.328125 23 -37.738281 Z M 26.859375 -38.015625 C 27.132812 -37.878906 27.410156 -37.738281 27.683594 -37.464844 Z M 54.128906 -40.496094 C 54.128906 -40.632812 54.269531 -40.769531 54.40625 -40.90625 C 54.269531 -40.632812 54.128906 -40.496094 54.128906 -40.496094 Z M 54.40625 -40.90625 L 54.542969 -41.183594 C 54.542969 -41.046875 54.40625 -40.90625 54.40625 -40.90625 Z M 54.40625 -40.90625 "/></g></g></g><g fill="#222222" fill-opacity="1"><g transform="translate(326.902274, 166.729846)"><g><path d="M 80.300781 -32.917969 C 79.886719 -37.328125 75.617188 -33.054688 74.238281 -31.816406 C 71.898438 -29.886719 69.417969 -28.234375 67.078125 -26.308594 C 60.328125 -21.210938 53.992188 -15.839844 47.65625 -10.46875 C 50.273438 -17.90625 54.128906 -25.34375 58.261719 -32.09375 C 59.089844 -33.46875 59.777344 -34.710938 59.5 -36.363281 C 58.8125 -40.082031 53.855469 -41.597656 50.550781 -41.046875 C 47.65625 -40.496094 47.382812 -39.117188 46.828125 -37.1875 C 45.726562 -33.746094 41.734375 -30.714844 39.390625 -28.097656 C 38.429688 -26.996094 31.953125 -19.144531 31.816406 -19.144531 C 32.230469 -19.144531 32.503906 -19.421875 32.78125 -19.558594 C 29.75 -16.390625 25.066406 -13.085938 21.347656 -10.191406 C 19.832031 -8.953125 15.425781 -4.546875 13.085938 -5.371094 C 6.472656 -7.4375 20.109375 -33.882812 19.695312 -34.019531 C 19.28125 -34.160156 14.875 -23.277344 13.910156 -20.796875 C 16.113281 -27.546875 19.007812 -34.160156 22.039062 -40.496094 C 21.898438 -39.941406 21.488281 -38.839844 21.761719 -38.839844 C 22.175781 -38.703125 24.242188 -43.25 23.828125 -43.386719 C 23.691406 -43.386719 23.554688 -43.25 23.414062 -43.25 C 23.828125 -43.800781 24.515625 -44.074219 24.792969 -44.902344 C 25.207031 -46.691406 23.140625 -48.621094 21.625 -49.171875 C 18.320312 -50.550781 14.460938 -48.621094 12.945312 -45.453125 C 12.535156 -44.902344 12.121094 -43.9375 11.84375 -43.664062 C 11.433594 -42.835938 10.742188 -42.558594 10.191406 -41.734375 C 8.675781 -39.117188 7.851562 -36.085938 6.75 -33.332031 C 6.335938 -32.09375 1.515625 -18.320312 2.203125 -18.179688 L 2.480469 -18.457031 C 2.203125 -17.492188 2.066406 -16.390625 1.929688 -15.425781 C 1.652344 -15.5625 2.066406 -16.390625 1.789062 -16.390625 C 0.414062 -16.527344 -0.136719 -7.714844 0 -6.75 C 0.277344 -3.996094 2.066406 -0.550781 4.683594 0.828125 C 5.921875 1.515625 7.574219 1.789062 9.089844 1.515625 C 9.640625 1.515625 12.257812 0.414062 11.292969 0.414062 L 12.121094 0.136719 L 11.84375 0.414062 C 11.984375 0.550781 16.941406 -1.652344 17.769531 -1.929688 C 21.761719 -3.582031 25.207031 -6.75 28.097656 -9.777344 L 37.1875 -18.871094 C 39.253906 -20.9375 41.046875 -24.105469 43.25 -25.757812 C 42.007812 -21.898438 40.769531 -18.042969 39.667969 -14.1875 C 38.152344 -9.640625 37.328125 -3.996094 35.121094 0.136719 C 33.332031 3.445312 28.785156 6.472656 26.167969 9.089844 C 22.449219 12.535156 18.730469 15.976562 15.289062 19.558594 C 10.46875 24.65625 6.199219 30.441406 1.929688 36.085938 C -2.480469 42.007812 -8.539062 50.410156 -3.03125 57.574219 C 0.6875 62.667969 7.574219 65.835938 13.773438 64.183594 C 19.421875 62.808594 21.625 58.125 24.378906 53.71875 C 33.195312 39.117188 38.015625 22.175781 43.109375 6.058594 C 43.9375 3.71875 44.488281 -0.414062 45.867188 -2.339844 C 47.242188 -4.269531 49.996094 -5.921875 51.652344 -7.4375 C 55.78125 -11.15625 60.050781 -14.738281 64.324219 -18.179688 L 76.304688 -27.683594 C 78.097656 -29.0625 80.574219 -30.300781 80.300781 -32.917969 Z M 21.074219 38.566406 L 21.074219 38.703125 L 20.523438 39.804688 L 20.523438 39.941406 C 20.386719 39.941406 20.386719 40.082031 20.386719 40.082031 C 20.386719 40.21875 20.246094 40.496094 20.246094 40.496094 C 18.871094 43.664062 17.21875 46.828125 15.425781 49.859375 C 13.910156 52.339844 11.84375 56.332031 8.953125 57.296875 C 3.445312 59.226562 3.03125 50.136719 3.855469 47.105469 C 5.921875 39.667969 11.433594 33.195312 16.113281 27.273438 C 20.9375 21.074219 26.03125 15.425781 31.816406 10.054688 C 28.511719 19.558594 25.207031 29.199219 21.074219 38.566406 Z M 29.0625 36.636719 C 29.613281 34.984375 30.578125 33.195312 31.542969 31.542969 C 30.714844 34.019531 30.027344 36.5 28.511719 38.980469 L 27.273438 41.183594 C 27.824219 39.667969 28.375 38.015625 29.0625 36.636719 Z M 33.746094 21.625 L 31.265625 27.683594 C 31.542969 26.445312 31.816406 25.066406 32.367188 24.242188 C 32.917969 23 34.019531 20.796875 33.746094 19.28125 C 33.882812 19.972656 34.019531 20.9375 33.746094 21.625 Z M 29.335938 33.332031 L 29.886719 32.503906 C 29.75 32.78125 29.613281 33.054688 29.335938 33.332031 Z M 29.335938 33.332031 "/></g></g></g><g fill="#222222" fill-opacity="1"><g transform="translate(397.147253, 166.729846)"><g><path d="M 55.09375 -35.121094 C 53.164062 -33.054688 51.925781 -29.613281 50.410156 -27.132812 C 48.070312 -23.140625 45.726562 -19.28125 43.25 -15.425781 C 38.566406 -7.988281 33.882812 -0.414062 28.234375 6.335938 C 25.894531 9.226562 20.9375 16.253906 16.253906 15.703125 C 12.808594 15.152344 12.808594 9.226562 12.808594 6.609375 C 12.808594 4.40625 12.945312 2.203125 13.222656 0.136719 C 13.359375 -1.101562 14.460938 -5.234375 13.773438 -6.335938 L 12.671875 -2.203125 C 12.808594 -3.855469 13.085938 -5.648438 13.5 -7.300781 C 13.359375 -7.574219 14.601562 -11.433594 14.875 -12.671875 C 15.5625 -15.425781 16.253906 -18.179688 17.078125 -20.9375 C 17.769531 -23.691406 18.457031 -26.308594 19.28125 -28.925781 C 19.972656 -31.402344 20.9375 -32.644531 22.449219 -34.570312 C 28.648438 -42.285156 34.296875 -50.6875 39.53125 -59.089844 C 41.457031 -62.257812 42.699219 -65.011719 45.039062 -67.628906 C 48.484375 -71.210938 50.824219 -76.582031 53.027344 -80.988281 C 56.746094 -88.152344 61.707031 -98.066406 60.878906 -106.46875 L 60.878906 -107.15625 L 60.742188 -107.296875 C 59.914062 -112.667969 54.957031 -119.003906 48.894531 -117.074219 C 45.726562 -116.109375 43.386719 -112.804688 41.457031 -110.464844 L 38.289062 -106.195312 C 37.601562 -105.367188 36.636719 -103.300781 35.949219 -102.199219 L 36.085938 -102.335938 L 31.679688 -94.761719 L 32.78125 -97.101562 C 32.09375 -97.242188 29.0625 -91.320312 28.648438 -90.628906 C 27.132812 -88.011719 25.757812 -85.394531 24.515625 -82.777344 C 21.761719 -77.269531 19.007812 -71.621094 17.21875 -65.699219 C 15.289062 -59.777344 13.085938 -53.992188 11.019531 -48.070312 C 9.917969 -44.902344 8.816406 -41.597656 7.851562 -38.429688 C 7.023438 -35.8125 5.097656 -31.542969 5.507812 -28.785156 L 5.921875 -28.785156 C 5.507812 -27.824219 5.234375 -26.859375 4.957031 -25.894531 C 5.097656 -26.71875 5.097656 -27.683594 5.234375 -27.960938 C 4.546875 -26.996094 4.683594 -23.691406 4.546875 -23.414062 C 2.753906 -15.976562 0.6875 -8.539062 0.136719 -0.828125 C -0.277344 6.472656 -0.277344 16.113281 5.507812 21.488281 C 11.984375 27.410156 19.421875 23.414062 24.792969 18.320312 C 31.128906 12.121094 36.5 4.820312 41.457031 -2.339844 C 46.003906 -8.953125 49.585938 -15.976562 53.71875 -22.589844 C 55.371094 -25.34375 57.160156 -28.097656 57.988281 -31.128906 C 58.539062 -33.332031 58.261719 -38.429688 55.09375 -35.121094 Z M 37.878906 -84.433594 C 40.632812 -91.042969 43.386719 -97.792969 47.242188 -103.992188 C 48.207031 -105.503906 54.40625 -113.769531 54.128906 -106.46875 L 54.128906 -106.332031 C 53.855469 -98.617188 48.894531 -90.492188 45.589844 -83.882812 L 39.804688 -73.136719 C 37.878906 -69.832031 34.570312 -65.699219 33.46875 -62.117188 C 34.296875 -64.324219 36.773438 -67.492188 38.015625 -69.554688 C 40.082031 -73 41.871094 -76.441406 43.800781 -79.886719 C 46.96875 -85.945312 50.410156 -92.28125 52.753906 -98.894531 C 46.554688 -80.4375 34.984375 -63.21875 24.792969 -46.828125 C 28.785156 -58.949219 32.78125 -72.171875 37.878906 -84.433594 Z M 33.46875 -94.074219 C 34.847656 -96.691406 37.328125 -98.894531 38.703125 -101.375 C 35.8125 -95.589844 32.230469 -90.355469 29.199219 -84.84375 C 29.199219 -84.984375 29.199219 -85.257812 29.335938 -85.394531 C 30.578125 -88.425781 31.953125 -91.179688 33.46875 -94.074219 Z M 7.4375 -22.863281 C 7.300781 -22.589844 7.300781 -22.449219 7.300781 -22.449219 C 5.648438 -18.59375 5.507812 -13.359375 4.683594 -9.226562 C 4.546875 -8.265625 4.269531 -7.4375 4.269531 -6.472656 L 4.269531 -6.886719 L 3.855469 -2.480469 C 4.132812 -7.4375 4.683594 -12.535156 5.648438 -17.355469 L 5.648438 -17.21875 C 6.058594 -20.386719 6.75 -23.277344 7.300781 -23.277344 C 7.574219 -23.414062 7.574219 -23 7.4375 -22.863281 Z M 7.4375 -22.863281 "/></g></g></g><g fill="#222222" fill-opacity="1"><g transform="translate(445.905538, 166.729846)"><g><path d="M 36.085938 -33.882812 C 35.8125 -35.671875 33.882812 -35.121094 32.917969 -34.433594 C 31.679688 -33.609375 24.792969 -24.515625 25.34375 -23.828125 C 25.757812 -23.828125 26.03125 -23.828125 26.308594 -24.105469 C 24.378906 -21.761719 20.796875 -19.144531 18.179688 -17.078125 C 16.664062 -15.839844 12.945312 -12.394531 10.742188 -13.5 C 6.058594 -15.839844 15.5625 -32.367188 15.152344 -32.503906 C 14.738281 -32.644531 11.292969 -24.929688 10.605469 -23.140625 C 12.257812 -27.960938 14.460938 -32.78125 17.078125 -37.050781 C 16.941406 -36.636719 16.527344 -35.949219 16.804688 -35.949219 C 17.078125 -35.8125 19.144531 -38.703125 18.730469 -38.980469 C 18.59375 -38.980469 18.320312 -38.980469 18.179688 -38.839844 C 18.59375 -39.253906 19.28125 -39.390625 19.28125 -40.21875 C 19.28125 -41.597656 16.113281 -42.972656 15.011719 -43.386719 C 12.394531 -44.488281 9.777344 -44.765625 7.714844 -43.386719 C 4.957031 -41.734375 4.40625 -38.429688 3.304688 -35.535156 C 3.03125 -34.710938 0.414062 -24.929688 0.964844 -24.792969 C 1.238281 -24.929688 1.238281 -25.066406 1.378906 -25.34375 L 0.964844 -22.863281 C 0.828125 -22.863281 1.101562 -23.554688 0.828125 -23.554688 C -0.277344 -23.554688 0 -18.59375 0.136719 -17.90625 C 0.6875 -15.425781 2.617188 -13.636719 4.132812 -11.570312 C 4.957031 -10.332031 5.785156 -9.089844 7.023438 -8.265625 C 8.675781 -7.023438 7.574219 -8.265625 8.675781 -7.714844 L 8.402344 -7.714844 C 8.265625 -6.886719 13.5 -5.507812 14.601562 -5.648438 C 19.421875 -6.75 22.863281 -12.671875 25.617188 -16.390625 C 28.234375 -19.695312 30.441406 -23 32.78125 -26.445312 C 34.160156 -28.234375 36.636719 -31.265625 36.085938 -33.882812 Z M 11.984375 -51.238281 C 12.257812 -50.824219 11.84375 -50.273438 12.808594 -49.722656 C 13.773438 -49.308594 14.324219 -49.859375 15.152344 -50.136719 C 16.804688 -50.824219 18.042969 -52.613281 19.28125 -53.71875 C 19.695312 -53.992188 18.871094 -53.855469 18.871094 -53.855469 C 20.660156 -55.507812 19.144531 -53.578125 20.796875 -54.542969 C 22.449219 -55.644531 22.726562 -57.4375 24.105469 -58.949219 C 22.449219 -58.261719 21.210938 -57.296875 20.109375 -55.921875 C 18.730469 -54.128906 17.769531 -53.304688 16.253906 -52.339844 C 17.90625 -53.578125 18.730469 -54.820312 20.109375 -57.023438 C 20.523438 -57.4375 20.9375 -57.710938 21.488281 -57.988281 C 21.074219 -58.398438 21.074219 -58.8125 21.625 -59.226562 C 22.039062 -59.914062 22.863281 -60.191406 23.277344 -60.878906 C 23.964844 -61.84375 23.828125 -63.082031 24.65625 -64.046875 C 25.34375 -64.597656 26.308594 -65.011719 26.859375 -65.5625 C 28.097656 -66.664062 29.476562 -68.730469 28.925781 -70.519531 C 28.375 -72.171875 26.996094 -74.238281 25.480469 -75.203125 C 23.691406 -76.167969 21.210938 -76.582031 19.28125 -75.753906 C 18.871094 -75.617188 17.21875 -75.203125 17.769531 -74.652344 C 17.90625 -74.378906 18.042969 -74.378906 18.320312 -74.378906 C 17.078125 -73.414062 15.011719 -71.761719 17.90625 -70.660156 C 17.628906 -70.382812 17.90625 -69.144531 17.90625 -69.003906 C 17.769531 -68.042969 15.839844 -62.945312 14.601562 -60.464844 L 16.253906 -62.945312 C 15.289062 -60.878906 14.1875 -58.949219 12.945312 -57.296875 C 13.773438 -59.089844 12.121094 -57.023438 12.121094 -56.609375 C 10.605469 -57.296875 11.019531 -53.027344 11.15625 -52.613281 C 11.15625 -52.476562 11.984375 -51.238281 11.984375 -51.238281 Z M 9.367188 -18.457031 L 9.367188 -18.320312 L 9.089844 -17.492188 L 9.367188 -18.59375 C 9.503906 -18.730469 9.503906 -18.730469 9.367188 -18.457031 Z M 13.910156 -59.363281 C 13.910156 -59.363281 14.1875 -59.640625 14.460938 -60.191406 Z M 12.535156 -56.746094 C 12.535156 -56.609375 12.535156 -56.609375 12.394531 -56.472656 C 12.394531 -56.472656 12.394531 -56.609375 12.257812 -56.609375 C 12.394531 -56.609375 12.394531 -56.609375 12.535156 -56.746094 Z M 12.535156 -56.746094 "/></g></g></g><g fill="#222222" fill-opacity="1"><g transform="translate(471.937473, 166.729846)"><g><path d="M 72.863281 -33.332031 C 72.722656 -35.8125 70.933594 -35.121094 69.695312 -34.019531 C 69.003906 -33.332031 60.050781 -23.414062 60.464844 -22.726562 C 60.742188 -22.726562 61.15625 -22.726562 61.429688 -23 C 58.8125 -20.386719 54.679688 -17.90625 51.511719 -15.5625 C 48.34375 -13.085938 44.765625 -8.539062 40.355469 -8.265625 C 39.941406 -8.265625 39.53125 -8.125 38.980469 -8.265625 C 37.050781 -8.539062 32.367188 -16.941406 31.953125 -18.730469 C 32.09375 -17.355469 35.261719 -11.15625 36.085938 -9.777344 C 32.917969 -13.359375 31.265625 -18.730469 30.441406 -23.554688 C 30.578125 -23.140625 30.851562 -22.726562 30.992188 -22.726562 C 31.402344 -22.863281 30.851562 -25.617188 30.851562 -25.757812 C 31.128906 -26.03125 33.195312 -26.582031 33.746094 -26.859375 C 36.773438 -28.097656 39.667969 -29.613281 42.558594 -31.265625 C 47.933594 -34.160156 53.304688 -37.601562 57.710938 -41.871094 C 62.53125 -46.691406 66.664062 -53.441406 60.328125 -58.949219 C 53.992188 -64.324219 45.039062 -57.160156 40.21875 -52.890625 C 35.535156 -48.757812 31.542969 -43.9375 27.824219 -38.980469 C 26.167969 -36.5 24.378906 -34.160156 22.863281 -31.679688 C 21.898438 -30.300781 18.871094 -26.859375 19.144531 -25.207031 C 19.144531 -25.207031 21.761719 -28.375 21.898438 -28.511719 C 20.9375 -27.132812 19.972656 -25.617188 19.144531 -24.105469 C 19.144531 -24.242188 16.941406 -21.210938 16.664062 -20.660156 L 12.945312 -14.1875 C 14.460938 -20.660156 16.253906 -27.132812 18.179688 -33.609375 C 19.144531 -36.914062 19.972656 -38.839844 22.175781 -41.457031 C 24.105469 -43.800781 26.03125 -46.140625 27.824219 -48.484375 C 31.953125 -53.71875 35.671875 -59.363281 39.390625 -65.011719 C 42.148438 -69.144531 44.214844 -74.515625 47.382812 -77.957031 C 51.238281 -82.503906 54.542969 -88.5625 56.472656 -94.347656 C 57.574219 -97.515625 57.160156 -100.132812 55.644531 -103.300781 C 52.753906 -108.949219 46.96875 -114.046875 40.632812 -111.152344 C 35.398438 -108.8125 31.679688 -103.4375 28.925781 -98.617188 C 27.132812 -95.589844 25.480469 -92.421875 24.105469 -89.113281 L 21.347656 -83.328125 C 20.9375 -82.226562 20.523438 -80.4375 20.109375 -79.472656 C 20.109375 -79.335938 19.972656 -79.199219 19.972656 -79.199219 C 18.871094 -76.441406 18.042969 -73.828125 17.078125 -71.070312 C 16.941406 -71.210938 17.769531 -73.828125 17.769531 -73.828125 C 17.078125 -73.828125 14.875 -67.214844 14.601562 -66.386719 C 13.359375 -63.082031 12.257812 -59.777344 11.15625 -56.332031 C 9.089844 -50.136719 7.4375 -43.800781 6.199219 -37.328125 C 5.097656 -30.300781 3.03125 -23.414062 1.515625 -16.527344 C 0.964844 -13.5 0 -10.46875 0 -7.4375 C 0 -5.785156 0.277344 -3.996094 1.238281 -2.617188 C 1.515625 -2.339844 3.855469 -0.414062 3.855469 -0.550781 C 3.855469 -0.550781 3.71875 -0.6875 3.71875 -0.828125 C 4.40625 -0.277344 5.785156 0.136719 6.886719 0.277344 C 5.921875 0.277344 4.683594 0.136719 4.40625 -0.277344 C 5.371094 1.101562 9.089844 0.136719 9.367188 0.136719 C 12.535156 -0.550781 13.222656 -4.957031 14.875 -7.4375 L 21.488281 -18.457031 C 22.039062 -15.5625 23.140625 -12.257812 24.515625 -9.777344 C 24.792969 -9.089844 28.785156 -3.582031 29.0625 -3.855469 C 29.0625 -3.996094 28.925781 -4.269531 28.925781 -4.40625 C 29.476562 -3.71875 30.027344 -3.167969 30.714844 -2.753906 C 30.578125 -2.617188 30.164062 -3.167969 30.027344 -2.890625 C 29.199219 -1.652344 35.121094 0.414062 36.085938 0.414062 C 38.015625 0.277344 39.667969 -1.101562 41.457031 -1.789062 C 42.972656 -2.480469 44.488281 -3.03125 45.867188 -4.132812 C 47.519531 -5.507812 45.726562 -4.683594 46.828125 -5.507812 L 46.828125 -5.234375 C 47.242188 -5.785156 53.441406 -9.226562 53.71875 -9.503906 C 56.882812 -11.84375 59.363281 -15.011719 62.117188 -17.90625 C 64.460938 -20.246094 66.386719 -22.863281 68.316406 -25.34375 C 70.382812 -27.683594 73.136719 -29.613281 72.863281 -33.195312 Z M 42.972656 -100.546875 C 44.351562 -102.476562 48.34375 -107.296875 50.824219 -103.992188 C 53.304688 -100.683594 49.035156 -92.832031 47.519531 -89.664062 C 45.453125 -84.984375 42.835938 -80.4375 40.21875 -76.03125 L 36.5 -69.96875 C 35.121094 -67.902344 33.332031 -65.976562 32.503906 -63.910156 C 33.054688 -64.875 34.160156 -66.113281 34.847656 -66.9375 L 37.878906 -71.761719 C 40.21875 -75.480469 42.421875 -79.199219 44.488281 -83.054688 C 45.589844 -84.84375 46.691406 -86.910156 47.933594 -89.113281 C 46.554688 -86.222656 45.039062 -83.46875 43.523438 -80.714844 C 37.464844 -69.695312 30.441406 -59.363281 22.863281 -49.445312 C 25.34375 -58.398438 27.960938 -67.351562 31.265625 -76.167969 C 34.433594 -84.433594 37.601562 -93.382812 42.972656 -100.546875 Z M 29.199219 -29.613281 C 33.746094 -35.949219 38.429688 -42.148438 43.800781 -47.792969 C 45.039062 -49.171875 51.925781 -57.023438 54.269531 -55.371094 C 56.472656 -53.71875 48.621094 -44.765625 47.519531 -43.523438 C 42.421875 -38.015625 36.222656 -32.367188 29.199219 -29.613281 Z M 30.027344 -79.058594 C 31.679688 -83.054688 33.195312 -87.1875 35.121094 -91.320312 C 35.261719 -91.871094 36.636719 -93.660156 37.328125 -94.898438 C 36.636719 -93.109375 34.570312 -90.078125 34.296875 -89.253906 C 32.09375 -83.605469 30.441406 -77.820312 28.511719 -72.035156 C 26.308594 -65.148438 24.105469 -58.539062 22.3125 -51.652344 L 22.589844 -52.753906 L 22.449219 -52.613281 C 22.449219 -52.753906 22.589844 -52.753906 22.589844 -52.890625 C 24.378906 -61.566406 26.582031 -70.796875 30.027344 -79.058594 Z M 20.109375 -79.472656 L 19.972656 -79.335938 C 20.109375 -79.335938 20.109375 -79.472656 20.109375 -79.472656 Z M 19.972656 -79.199219 L 19.972656 -79.335938 Z M 19.972656 -79.199219 "/></g></g></g><g fill="#222222" fill-opacity="1"><g transform="translate(534.744762, 166.729846)"><g><path d="M 52.753906 -34.019531 C 52.753906 -33.882812 52.753906 -33.882812 52.613281 -34.019531 L 52.613281 -34.160156 C 50.410156 -37.878906 47.519531 -32.78125 46.277344 -30.992188 C 43.9375 -27.824219 41.734375 -24.792969 39.253906 -21.898438 C 37.1875 -19.421875 34.984375 -16.941406 33.332031 -14.324219 C 33.332031 -14.050781 33.054688 -13.359375 33.054688 -13.359375 C 32.503906 -12.535156 31.679688 -11.84375 30.992188 -11.019531 C 29.75 -9.777344 28.511719 -8.402344 27.132812 -7.164062 C 25.066406 -5.234375 13.5 5.648438 11.984375 -1.378906 C 11.15625 -4.820312 12.257812 -9.089844 12.945312 -12.394531 C 13.359375 -14.1875 13.773438 -15.839844 14.050781 -17.628906 C 14.324219 -19.007812 13.910156 -20.386719 14.601562 -21.761719 C 15.011719 -22.589844 15.152344 -22.449219 16.113281 -22.726562 L 18.457031 -23.554688 C 19.972656 -24.105469 21.488281 -24.65625 22.863281 -25.480469 C 24.929688 -26.71875 26.859375 -28.234375 28.648438 -29.75 C 32.917969 -33.332031 37.464844 -37.601562 39.253906 -42.972656 C 40.21875 -46.003906 40.355469 -49.308594 38.429688 -51.925781 C 36.636719 -54.269531 33.609375 -55.507812 30.851562 -56.058594 C 23.414062 -57.4375 17.769531 -53.164062 13.5 -47.519531 C 8.265625 -41.046875 4.546875 -33.054688 2.753906 -24.929688 C 1.789062 -20.9375 1.238281 -16.941406 0.550781 -12.808594 C -0.136719 -8.675781 -0.550781 -4.820312 1.652344 -0.964844 C 1.515625 -2.339844 1.238281 -3.582031 1.238281 -4.820312 C 1.238281 -5.507812 1.515625 -6.199219 1.515625 -6.75 C 1.515625 -7.023438 1.238281 -7.851562 1.238281 -8.265625 C 1.238281 -9.503906 1.515625 -10.46875 1.789062 -11.707031 C 1.929688 -12.945312 1.789062 -14.1875 1.929688 -15.425781 C 2.066406 -16.804688 2.617188 -17.90625 3.167969 -19.144531 C 3.582031 -20.246094 3.71875 -21.210938 4.132812 -22.3125 C 4.546875 -23.277344 4.820312 -24.378906 5.234375 -25.480469 C 5.371094 -26.167969 6.058594 -26.996094 6.472656 -27.824219 C 6.058594 -26.582031 5.234375 -25.480469 4.957031 -24.378906 C 4.546875 -22.726562 4.820312 -20.9375 4.683594 -19.28125 C 4.40625 -17.492188 3.855469 -15.703125 3.582031 -13.773438 C 3.304688 -11.984375 2.480469 -10.332031 2.203125 -8.539062 C 1.929688 -6.886719 1.378906 -5.648438 1.515625 -3.996094 C 1.515625 -3.03125 1.652344 -2.066406 1.789062 -1.238281 C 1.929688 -0.136719 2.617188 0.550781 3.304688 1.378906 C 5.648438 4.132812 8.816406 6.335938 12.394531 7.300781 C 14.875 7.988281 17.078125 7.851562 19.421875 6.609375 C 22.726562 4.820312 25.617188 2.066406 28.097656 -0.550781 C 30.441406 -3.167969 32.230469 -6.058594 34.296875 -8.816406 C 36.222656 -11.292969 38.566406 -13.636719 40.496094 -16.113281 L 47.933594 -25.757812 L 52.203125 -31.402344 C 52.890625 -32.230469 53.304688 -32.917969 52.753906 -34.019531 Z M 18.59375 -32.503906 C 18.730469 -32.78125 18.730469 -32.917969 18.730469 -32.917969 C 20.796875 -37.328125 22.3125 -42.007812 25.207031 -46.277344 L 27.683594 -49.585938 C 28.234375 -50.273438 29.199219 -51.511719 30.164062 -51.789062 C 32.230469 -52.203125 32.78125 -48.621094 32.644531 -47.242188 L 32.09375 -44.351562 C 31.953125 -43.523438 32.230469 -42.972656 32.09375 -42.285156 C 31.816406 -41.457031 31.128906 -41.046875 30.714844 -40.355469 L 28.375 -37.328125 C 25.207031 -33.609375 21.210938 -30.441406 16.804688 -28.097656 C 17.492188 -29.613281 17.90625 -31.128906 18.59375 -32.503906 Z M 18.59375 -32.503906 "/></g></g></g><g fill="#222222" fill-opacity="1"><g transform="translate(181.613544, 358.993949)"><g><path d="M 12.945312 -11.019531 L 12.808594 -10.882812 C 12.945312 -11.019531 12.945312 -11.019531 12.945312 -11.15625 L 12.945312 -11.84375 C 14.460938 -19.972656 17.355469 -27.960938 20.246094 -35.8125 C 23.277344 -44.074219 26.167969 -52.203125 30.027344 -60.050781 C 33.609375 -67.492188 37.738281 -74.789062 42.421875 -81.539062 C 46.554688 -87.738281 51.511719 -94.488281 57.847656 -98.617188 C 59.777344 -99.167969 61.707031 -101.234375 64.183594 -100.824219 C 66.664062 -100.410156 66.664062 -97.792969 66.113281 -95.3125 C 66.800781 -97.242188 67.214844 -99.308594 65.5625 -100.683594 C 63.359375 -102.335938 59.089844 -99.71875 57.296875 -98.480469 C 56.472656 -98.207031 55.644531 -97.65625 54.957031 -97.101562 C 55.371094 -97.515625 55.921875 -97.929688 56.609375 -98.34375 L 55.921875 -98.066406 L 57.847656 -99.167969 C 60.050781 -100.410156 65.011719 -103.164062 66.664062 -99.582031 C 67.902344 -96.691406 65.976562 -91.871094 65.011719 -89.113281 C 63.21875 -84.433594 61.015625 -80.023438 58.675781 -75.617188 C 59.089844 -76.582031 60.742188 -80.300781 60.742188 -80.300781 C 59.777344 -80.4375 55.371094 -70.246094 54.542969 -69.96875 L 54.679688 -69.96875 C 54.128906 -69.554688 53.71875 -69.144531 53.71875 -69.003906 C 53.441406 -67.351562 55.371094 -67.765625 56.472656 -67.902344 C 61.15625 -68.453125 67.214844 -72.449219 70.246094 -75.890625 C 73.550781 -79.609375 74.789062 -85.257812 74.789062 -90.214844 L 74.789062 -90.355469 C 74.652344 -99.71875 68.179688 -111.566406 57.023438 -110.878906 C 50.824219 -110.601562 45.039062 -104.542969 41.046875 -100.410156 C 38.152344 -97.101562 35.398438 -93.523438 32.917969 -89.941406 C 31.816406 -88.289062 30.714844 -86.773438 29.75 -85.121094 C 28.648438 -83.605469 26.445312 -81.265625 25.894531 -79.472656 C 25.894531 -79.472656 26.582031 -80.300781 27.132812 -80.851562 C 25.617188 -78.507812 24.242188 -76.03125 22.863281 -73.6875 C 22.726562 -73.828125 23.691406 -75.753906 23.691406 -75.753906 C 22.449219 -76.03125 16.804688 -64.734375 16.113281 -63.496094 C 13.636719 -58.949219 11.433594 -54.40625 9.917969 -49.585938 C 8.265625 -44.214844 6.058594 -39.117188 4.40625 -33.882812 C 3.582031 -31.265625 2.753906 -28.785156 2.203125 -26.167969 C 1.929688 -24.929688 1.652344 -23.828125 1.515625 -22.589844 C 1.515625 -22.449219 1.238281 -20.246094 1.515625 -20.523438 C 1.238281 -19.558594 1.238281 -18.320312 1.101562 -17.355469 C 1.101562 -17.355469 1.101562 -19.695312 1.238281 -19.972656 C 0.6875 -19.28125 1.101562 -16.664062 0.964844 -16.390625 C 0.277344 -11.15625 -0.828125 -5.648438 0.964844 -0.550781 C 3.304688 6.472656 9.089844 12.257812 15.425781 15.976562 C 18.730469 18.042969 23.140625 20.386719 27.273438 20.109375 C 32.09375 19.832031 36.773438 15.839844 40.355469 12.945312 C 50.824219 4.132812 60.328125 -8.265625 62.117188 -22.3125 C 62.257812 -23.277344 62.945312 -28.097656 61.292969 -28.234375 C 59.777344 -28.375 58.675781 -25.066406 58.125 -24.242188 C 53.992188 -17.492188 49.171875 -11.15625 43.800781 -5.371094 C 38.289062 0.6875 31.402344 7.164062 23 9.089844 C 21.898438 9.367188 20.660156 9.503906 19.421875 9.503906 C 17.769531 9.367188 16.253906 8.953125 15.011719 7.714844 C 14.324219 7.023438 13.636719 4.683594 12.808594 4.269531 C 12.808594 3.582031 12.671875 2.890625 12.535156 2.480469 L 12.121094 1.652344 C 11.984375 -2.480469 12.121094 -6.335938 12.808594 -10.605469 L 12.808594 -10.742188 C 12.808594 -10.882812 12.945312 -10.882812 12.945312 -11.019531 Z M 37.1875 -78.371094 C 31.816406 -69.554688 27.273438 -60.464844 22.726562 -51.101562 C 20.109375 -45.589844 17.492188 -39.941406 15.425781 -34.019531 C 18.320312 -43.25 21.761719 -52.0625 25.894531 -60.878906 C 30.851562 -71.484375 37.464844 -81.816406 45.316406 -90.355469 C 42.148438 -86.496094 39.390625 -82.089844 37.1875 -78.371094 Z M 51.375 -93.523438 C 49.445312 -91.59375 47.65625 -89.390625 46.003906 -87.324219 C 48.621094 -90.769531 51.375 -94.210938 54.820312 -96.964844 C 53.578125 -95.863281 52.339844 -94.488281 51.375 -93.523438 Z M 65.425781 -92.421875 C 65.699219 -93.246094 65.976562 -94.210938 66.113281 -95.3125 C 65.835938 -94.074219 65.285156 -92.832031 65.285156 -91.871094 C 65.425781 -92.144531 65.425781 -92.28125 65.425781 -92.421875 Z M 65.425781 -92.421875 "/></g></g></g><g fill="#222222" fill-opacity="1"><g transform="translate(250.343442, 358.993949)"><g><path d="M 63.359375 -34.296875 C 63.359375 -34.296875 63.496094 -34.160156 63.359375 -34.433594 C 62.667969 -35.398438 61.707031 -34.710938 60.742188 -34.433594 C 56.746094 -33.609375 52.613281 -32.644531 48.484375 -31.953125 C 49.996094 -36.914062 51.511719 -42.148438 52.0625 -47.242188 C 52.339844 -49.171875 52.476562 -51.238281 52.0625 -53.164062 C 51.789062 -54.40625 51.375 -55.644531 50.6875 -56.746094 C 50.6875 -56.746094 49.035156 -58.8125 49.445312 -57.710938 L 49.308594 -57.847656 L 48.757812 -58.949219 L 49.308594 -58.398438 C 49.445312 -59.226562 47.105469 -60.742188 47.105469 -60.742188 C 43.664062 -64.183594 38.980469 -66.800781 34.296875 -64.183594 C 31.402344 -62.53125 29.0625 -59.777344 27.132812 -57.023438 C 26.445312 -56.058594 25.757812 -54.957031 25.207031 -53.855469 C 24.65625 -52.753906 23.828125 -49.171875 23 -48.621094 C 22.3125 -48.070312 20.246094 -47.933594 19.28125 -47.382812 C 17.90625 -46.828125 16.664062 -46.140625 15.5625 -45.316406 C 12.945312 -43.664062 10.882812 -41.320312 8.953125 -38.980469 C 5.648438 -34.570312 3.996094 -29.613281 1.652344 -25.207031 C -2.753906 -16.804688 2.066406 -5.785156 10.191406 -1.789062 C 12.808594 -0.550781 15.839844 0 18.59375 -0.277344 C 21.488281 -0.6875 24.242188 -2.203125 26.445312 -3.855469 C 28.511719 -5.371094 33.054688 -8.125 33.882812 -10.46875 C 33.882812 -10.605469 33.609375 -10.46875 33.195312 -10.054688 L 37.1875 -14.738281 C 37.328125 -14.601562 36.222656 -13.222656 36.222656 -13.222656 C 37.1875 -12.808594 42.148438 -20.109375 42.699219 -20.660156 C 43.664062 -22.3125 44.625 -24.105469 45.726562 -25.757812 C 46.691406 -26.996094 46.417969 -26.859375 47.792969 -27.410156 C 47.65625 -27.273438 49.445312 -27.824219 49.722656 -27.824219 C 51.238281 -28.097656 67.351562 -29.199219 63.359375 -34.296875 Z M 15.703125 -6.472656 L 15.5625 -6.472656 C 4.132812 -4.820312 17.355469 -29.0625 17.628906 -30.441406 L 16.804688 -29.199219 C 18.871094 -33.332031 20.796875 -36.636719 21.761719 -37.738281 C 23.277344 -30.851562 30.714844 -28.234375 36.773438 -27.410156 C 32.78125 -19.421875 25.34375 -8.265625 15.703125 -6.472656 Z M 42.835938 -44.625 C 41.871094 -40.769531 41.046875 -35.671875 38.980469 -32.230469 C 38.289062 -30.851562 38.703125 -31.265625 37.328125 -30.992188 C 36.5 -30.714844 34.710938 -30.992188 33.882812 -31.128906 C 32.367188 -31.265625 30.578125 -31.542969 29.476562 -32.503906 C 27.546875 -34.160156 27.824219 -36.773438 28.097656 -39.117188 C 28.375 -41.457031 29.0625 -43.664062 29.886719 -45.867188 C 30.300781 -46.691406 32.917969 -51.101562 32.503906 -51.925781 C 32.367188 -52.339844 30.851562 -49.859375 30.714844 -49.722656 C 31.542969 -51.238281 32.367188 -52.0625 33.054688 -53.027344 C 32.917969 -53.027344 33.054688 -53.164062 33.195312 -53.441406 L 33.195312 -53.304688 L 33.332031 -53.578125 C 33.332031 -53.578125 33.332031 -53.71875 33.46875 -53.71875 C 35.535156 -56.472656 40.632812 -62.667969 43.386719 -58.398438 C 45.453125 -54.820312 43.523438 -48.070312 42.835938 -44.625 Z M 33.332031 -53.578125 L 33.46875 -53.71875 C 33.46875 -53.578125 33.332031 -53.578125 33.332031 -53.578125 Z M 33.332031 -53.578125 "/></g></g></g><g fill="#222222" fill-opacity="1"><g transform="translate(304.197939, 358.993949)"><g><path d="M 81.402344 -33.609375 L 81.402344 -33.746094 C 80.574219 -38.289062 74.378906 -30.714844 73.550781 -30.027344 C 69.554688 -25.617188 65.835938 -20.796875 62.257812 -15.976562 C 58.675781 -11.019531 55.230469 -6.058594 51.511719 -1.101562 C 49.722656 1.378906 47.933594 3.71875 45.867188 5.921875 C 45.175781 6.75 43.523438 9.089844 42.285156 9.089844 C 37.464844 9.089844 41.183594 -10.332031 41.734375 -13.359375 C 42.558594 -18.730469 42.972656 -25.894531 46.417969 -30.164062 C 47.242188 -31.265625 56.609375 -43.25 56.609375 -43.25 C 56.332031 -43.386719 55.230469 -42.007812 54.542969 -41.183594 L 60.464844 -49.171875 L 60.878906 -49.722656 L 61.015625 -49.722656 L 60.878906 -49.722656 L 61.980469 -51.238281 C 62.117188 -51.101562 61.980469 -50.824219 61.84375 -50.550781 L 63.082031 -51.925781 L 66.664062 -56.609375 C 69.28125 -60.328125 71.761719 -64.324219 74.101562 -68.179688 C 77.820312 -74.515625 82.917969 -83.605469 80.160156 -91.320312 C 78.097656 -96.964844 70.519531 -98.066406 65.425781 -96.140625 C 61.707031 -94.761719 58.539062 -91.871094 55.921875 -88.839844 C 54.542969 -87.046875 53.164062 -85.121094 51.925781 -83.054688 C 51.511719 -82.503906 49.722656 -78.097656 49.308594 -77.546875 L 49.445312 -77.546875 C 48.621094 -76.03125 47.792969 -74.515625 47.242188 -73 C 47.519531 -74.101562 48.207031 -76.304688 48.757812 -76.71875 C 47.65625 -75.890625 46.691406 -71.898438 46.417969 -71.484375 C 41.183594 -60.050781 36.636719 -48.484375 33.332031 -36.363281 C 29.613281 -40.632812 23.691406 -47.933594 17.21875 -45.316406 C 11.84375 -43.109375 7.851562 -37.464844 5.097656 -32.503906 C 2.617188 -28.097656 1.929688 -23.554688 0.136719 -19.28125 C -3.03125 -11.984375 -4.546875 3.03125 6.199219 5.234375 C 9.503906 5.921875 12.535156 3.855469 15.152344 2.066406 C 19.832031 -1.378906 24.242188 -5.371094 28.375 -9.503906 C 27.683594 -2.203125 26.167969 8.816406 32.09375 14.601562 C 39.390625 22.039062 46.691406 11.984375 51.101562 6.472656 C 56.746094 -0.6875 61.15625 -8.675781 66.800781 -15.5625 C 69.554688 -18.871094 72.3125 -22.175781 75.203125 -25.207031 C 77.40625 -27.410156 81.816406 -30.164062 81.402344 -33.609375 Z M 30.714844 -24.515625 C 30.578125 -24.105469 30.578125 -23.828125 30.578125 -23.828125 C 30.027344 -20.523438 30.027344 -17.628906 27.683594 -15.289062 C 25.617188 -13.085938 23.414062 -11.019531 21.210938 -8.953125 C 19.144531 -7.023438 14.1875 -1.378906 11.019531 -1.652344 C 7.164062 -2.066406 10.054688 -10.882812 11.984375 -16.253906 C 9.917969 -10.742188 6.609375 -1.789062 11.15625 -1.515625 C 12.394531 -1.378906 14.460938 -2.480469 16.253906 -3.996094 C 14.601562 -2.480469 11.84375 -0.414062 10.191406 -1.238281 C 7.023438 -2.617188 9.777344 -10.46875 10.332031 -12.671875 C 12.121094 -19.007812 14.738281 -25.066406 17.769531 -30.851562 C 19.28125 -33.746094 21.488281 -38.429688 24.378906 -38.703125 L 23.691406 -38.289062 C 23.828125 -38.429688 23.964844 -38.429688 24.105469 -38.429688 C 25.066406 -38.703125 26.03125 -38.015625 26.71875 -37.464844 C 28.511719 -36.222656 29.613281 -33.882812 30.851562 -32.09375 C 32.230469 -29.886719 31.265625 -27.546875 30.714844 -25.066406 Z M 52.890625 -56.332031 C 52.890625 -56.472656 52.890625 -56.746094 53.027344 -56.882812 L 53.027344 -57.023438 C 53.164062 -57.4375 53.304688 -57.574219 53.304688 -57.574219 L 53.304688 -57.710938 C 56.472656 -66.527344 59.914062 -75.339844 64.875 -83.328125 C 66.113281 -85.394531 69.695312 -91.730469 72.863281 -89.941406 C 74.101562 -89.253906 74.378906 -87.460938 74.378906 -86.222656 C 74.929688 -77.957031 68.316406 -68.179688 64.183594 -61.566406 C 59.363281 -53.855469 53.992188 -46.277344 48.34375 -39.253906 L 51.375 -42.421875 L 54.128906 -45.867188 L 47.105469 -36.773438 L 46.140625 -35.535156 L 45.589844 -34.984375 C 45.726562 -35.8125 46.417969 -36.636719 47.105469 -37.601562 C 46.828125 -37.328125 46.554688 -37.050781 46.417969 -36.773438 C 48.207031 -42.699219 50.136719 -48.621094 52.203125 -54.542969 C 52.0625 -54.40625 52.203125 -54.679688 52.339844 -55.230469 L 52.753906 -55.921875 C 52.753906 -56.058594 52.753906 -56.195312 52.890625 -56.332031 Z M 41.320312 -45.039062 C 41.046875 -44.351562 40.21875 -41.183594 39.804688 -40.769531 C 39.804688 -40.632812 39.667969 -40.496094 39.53125 -40.496094 C 40.632812 -41.871094 39.941406 -43.664062 40.496094 -45.316406 C 40.769531 -46.140625 42.148438 -47.65625 42.421875 -48.757812 C 42.421875 -47.65625 41.734375 -45.726562 41.320312 -45.039062 Z M 19.421875 -6.886719 C 22.863281 -9.917969 26.167969 -13.085938 29.335938 -16.390625 C 29.0625 -14.601562 24.792969 -11.570312 23.277344 -10.191406 C 21.488281 -8.402344 19.421875 -6.609375 17.355469 -4.957031 L 17.21875 -4.957031 Z M 43.800781 -57.574219 C 43.25 -55.921875 42.558594 -54.40625 41.734375 -52.890625 C 42.421875 -54.957031 42.835938 -57.023438 43.800781 -58.949219 C 44.625 -60.464844 45.589844 -62.394531 46.277344 -64.183594 C 45.589844 -61.980469 44.488281 -59.640625 43.800781 -57.574219 Z M 52.753906 -55.921875 L 52.203125 -54.542969 C 52.203125 -54.679688 52.339844 -54.957031 52.339844 -55.230469 Z M 23 -37.738281 C 22.449219 -37.328125 22.039062 -36.773438 21.898438 -36.773438 C 22.175781 -36.773438 22.589844 -37.328125 23 -37.738281 Z M 26.859375 -38.015625 C 27.132812 -37.878906 27.410156 -37.738281 27.683594 -37.464844 Z M 54.128906 -40.496094 C 54.128906 -40.632812 54.269531 -40.769531 54.40625 -40.90625 C 54.269531 -40.632812 54.128906 -40.496094 54.128906 -40.496094 Z M 54.40625 -40.90625 L 54.542969 -41.183594 C 54.542969 -41.046875 54.40625 -40.90625 54.40625 -40.90625 Z M 54.40625 -40.90625 "/></g></g></g><g fill="#222222" fill-opacity="1"><g transform="translate(375.544811, 358.993949)"><g><path d="M 52.753906 -34.019531 C 52.753906 -33.882812 52.753906 -33.882812 52.613281 -34.019531 L 52.613281 -34.160156 C 50.410156 -37.878906 47.519531 -32.78125 46.277344 -30.992188 C 43.9375 -27.824219 41.734375 -24.792969 39.253906 -21.898438 C 37.1875 -19.421875 34.984375 -16.941406 33.332031 -14.324219 C 33.332031 -14.050781 33.054688 -13.359375 33.054688 -13.359375 C 32.503906 -12.535156 31.679688 -11.84375 30.992188 -11.019531 C 29.75 -9.777344 28.511719 -8.402344 27.132812 -7.164062 C 25.066406 -5.234375 13.5 5.648438 11.984375 -1.378906 C 11.15625 -4.820312 12.257812 -9.089844 12.945312 -12.394531 C 13.359375 -14.1875 13.773438 -15.839844 14.050781 -17.628906 C 14.324219 -19.007812 13.910156 -20.386719 14.601562 -21.761719 C 15.011719 -22.589844 15.152344 -22.449219 16.113281 -22.726562 L 18.457031 -23.554688 C 19.972656 -24.105469 21.488281 -24.65625 22.863281 -25.480469 C 24.929688 -26.71875 26.859375 -28.234375 28.648438 -29.75 C 32.917969 -33.332031 37.464844 -37.601562 39.253906 -42.972656 C 40.21875 -46.003906 40.355469 -49.308594 38.429688 -51.925781 C 36.636719 -54.269531 33.609375 -55.507812 30.851562 -56.058594 C 23.414062 -57.4375 17.769531 -53.164062 13.5 -47.519531 C 8.265625 -41.046875 4.546875 -33.054688 2.753906 -24.929688 C 1.789062 -20.9375 1.238281 -16.941406 0.550781 -12.808594 C -0.136719 -8.675781 -0.550781 -4.820312 1.652344 -0.964844 C 1.515625 -2.339844 1.238281 -3.582031 1.238281 -4.820312 C 1.238281 -5.507812 1.515625 -6.199219 1.515625 -6.75 C 1.515625 -7.023438 1.238281 -7.851562 1.238281 -8.265625 C 1.238281 -9.503906 1.515625 -10.46875 1.789062 -11.707031 C 1.929688 -12.945312 1.789062 -14.1875 1.929688 -15.425781 C 2.066406 -16.804688 2.617188 -17.90625 3.167969 -19.144531 C 3.582031 -20.246094 3.71875 -21.210938 4.132812 -22.3125 C 4.546875 -23.277344 4.820312 -24.378906 5.234375 -25.480469 C 5.371094 -26.167969 6.058594 -26.996094 6.472656 -27.824219 C 6.058594 -26.582031 5.234375 -25.480469 4.957031 -24.378906 C 4.546875 -22.726562 4.820312 -20.9375 4.683594 -19.28125 C 4.40625 -17.492188 3.855469 -15.703125 3.582031 -13.773438 C 3.304688 -11.984375 2.480469 -10.332031 2.203125 -8.539062 C 1.929688 -6.886719 1.378906 -5.648438 1.515625 -3.996094 C 1.515625 -3.03125 1.652344 -2.066406 1.789062 -1.238281 C 1.929688 -0.136719 2.617188 0.550781 3.304688 1.378906 C 5.648438 4.132812 8.816406 6.335938 12.394531 7.300781 C 14.875 7.988281 17.078125 7.851562 19.421875 6.609375 C 22.726562 4.820312 25.617188 2.066406 28.097656 -0.550781 C 30.441406 -3.167969 32.230469 -6.058594 34.296875 -8.816406 C 36.222656 -11.292969 38.566406 -13.636719 40.496094 -16.113281 L 47.933594 -25.757812 L 52.203125 -31.402344 C 52.890625 -32.230469 53.304688 -32.917969 52.753906 -34.019531 Z M 18.59375 -32.503906 C 18.730469 -32.78125 18.730469 -32.917969 18.730469 -32.917969 C 20.796875 -37.328125 22.3125 -42.007812 25.207031 -46.277344 L 27.683594 -49.585938 C 28.234375 -50.273438 29.199219 -51.511719 30.164062 -51.789062 C 32.230469 -52.203125 32.78125 -48.621094 32.644531 -47.242188 L 32.09375 -44.351562 C 31.953125 -43.523438 32.230469 -42.972656 32.09375 -42.285156 C 31.816406 -41.457031 31.128906 -41.046875 30.714844 -40.355469 L 28.375 -37.328125 C 25.207031 -33.609375 21.210938 -30.441406 16.804688 -28.097656 C 17.492188 -29.613281 17.90625 -31.128906 18.59375 -32.503906 Z M 18.59375 -32.503906 "/></g></g></g></svg>